<svg xmlns="http://www.w3.org/2000/svg" width="76px" height="76px" viewBox="0 0 76 76">
	<path d="M24.684,28.694c0-4.57,1.569-8.347,4.716-11.338c2.219-2.109,5.175-3.164,8.877-3.164c4.065,0,7.213,1.055,9.433,3.164   c2.4,2.285,3.606,5.186,3.606,8.701c0,2.991-1.109,5.537-3.329,7.646c-1.295,1.23-3.052,2.9-5.271,5.01   c-1.664,1.582-2.497,3.955-2.497,7.119h-4.993c0-3.864,0.647-6.765,1.942-8.701c0.924-1.406,2.678-3.337,5.271-5.801   c1.479-1.406,2.22-3.073,2.22-5.01c0-2.461-0.65-4.307-1.942-5.537c-1.109-1.055-2.681-1.582-4.716-1.582   c-1.665,0-3.052,0.527-4.161,1.582c-1.85,1.758-2.774,4.395-2.774,7.91H24.684z M34.671,53.479h6.104v6.328h-6.104V53.479z"/>
</svg>