<svg width="17" height="17" viewBox="0 0 17 17"  xmlns="http://www.w3.org/2000/svg">
    <path d="M6,0.5h5 M11,1.5h2 M13,2.5h1 M14,3.5h1 M15.5,4v2 M16.5,6v5 M15.5,11v2 M14.5,13v1 M13.5,14v1 M11,15.5h2 M6,16.5h5 M4,15.5h2 M3,14.5h1 M2,13.5h1 M1.5,11v2 M0.5,6v5 M1.5,4v2 M2.5,3v1 M3.5,2v1 M4,1.5h2 z" stroke="black"/>
    <path d="M6,1.5h5 M4,2.5h9 M1.5,6v5 M2.5,4v9 M14.5,4v9 M15.5,6v5 M4,14.5h9 M6,15.5h5" stroke="yellow" />
    <rect x="3" y="3" width="11" height="11" fill="yellow" />
    
    <path d="M4,4.5h1 M6,4.5h1 M10,4.5h1 M12,4.5h1 M5,5.5h1 M11,5.5h1 M4,6.5h1 M6,6.5h1 M10,6.5h1 M12,6.5h1" stroke="black"/>
    <path d="M4,12.5h1 M5,11.5h1 M6,10.5h5 M11,11.5h1 M12,12.5h1" stroke="black" />
</svg>