<svg xmlns="http://www.w3.org/2000/svg" stroke-width="2" stroke="red" width="88" height="168" viewBox="0 0 11 21">
    <path d="M0.5,11v9 M1.5,12v7 M2.5,13v5" />
    <path d="M8.5,3v5 M9.5,2v7 M10.5,1v9" />
    <path d="M1,0.5h9 M2,1.5h7 M3,2.5h5" />
    <path d="M2,9.5h7 M1,10.5h9 M2,11.5h7" />
    <path d="M3,18.5h5 M2,19.5h7 M1,20.5h9" />
    <path d="M0,1.5h1 M0,3.5h1 M0,5.5h1 M0,7.5h1 M0,9.5h1 M1,2.5h1 M1,4.5h1 M1,6.5h1 M1,8.5h1 M2,3.5h1 M2,5.5h1 M2,7.5h1" stroke="#7b0000" />
    <path d="M8,13.5h1 M8,15.5h1 M8,17.5h1 M9,12.5h1 M9,14.5h1 M9,16.5h1 M9,18.5h1 M10,11.5h1 M10,13.5h1 M10,15.5h1 M10,17.5h1 M10,19.5h1" stroke="#7b0000" />
</svg>