<svg xmlns="http://www.w3.org/2000/svg" stroke-width="2" stroke="#7b0000" width="88" height="168" viewBox="0 0 11 21">
    <path d="M2,9.5h7 M1,10.5h9 M2,11.5h7" stroke="red" />
    <path d="M0,1.5h1 M0,3.5h1 M0,5.5h1 M0,7.5h1 M0,9.5h1 M1,2.5h1 M1,4.5h1 M1,6.5h1 M1,8.5h1 M2,3.5h1 M2,5.5h1 M2,7.5h1" />
    <path d="M0,11.5h1 M0,13.5h1 M0,15.5h1 M0,17.5h1 M0,19.5h1 M1,12.5h1 M1,14.5h1 M1,16.5h1 M1,18.5h1 M2,13.5h1 M2,15.5h1 M2,17.5h1" />
    <path d="M8,3.5h1 M8,5.5h1 M8,7.5h1 M9,2.5h1 M9,4.5h1 M9,6.5h1 M9,8.5h1 M10,1.5h1 M10,3.5h1 M10,5.5h1 M10,7.5h1 M10,9.5h1" />
    <path d="M8,13.5h1 M8,15.5h1 M8,17.5h1 M9,12.5h1 M9,14.5h1 M9,16.5h1 M9,18.5h1 M10,11.5h1 M10,13.5h1 M10,15.5h1 M10,17.5h1 M10,19.5h1" />
    <path d="M2,0.5h1 M4,0.5h1 M6,0.5h1 M8,0.5h1 M3,1.5h1 M5,1.5h1 M7,1.5h1 M4,2.5h1 M6,2.5h1" />
    <path d="M4,18.5h1 M6,18.5h1 M3,19.5h1 M5,19.5h1 M7,19.5h1 M2,20.5h1 M4,20.5h1 M6,20.5h1 M8,20.5h1" />
</svg>