<svg xmlns="http://www.w3.org/2000/svg" width="76px" height="76px" viewBox="0 0 76 76">
	<path fill="#008284" d="M66.856,23.967v-3.565c0-6.296-5.109-11.4-11.399-11.4H20.544c-6.29,0-11.4,5.104-11.4,11.4v34.197  c0,6.29,5.11,11.4,11.4,11.4h34.913c6.29,0,11.399-5.11,11.399-11.4V43.911c0-4.984-4.921-12.11-11.405-12.11H27.669  c-1.569,0-2.85-1.28-2.85-2.85v-6.412c0-1.575,1.28-2.851,2.85-2.851h20.663c1.569,0,2.85,1.275,2.85,2.851v1.005L66.856,23.967z   M25.531,47.474c0-1.569,1.28-2.85,2.851-2.85h20.662c1.57,0,2.851,1.28,2.851,2.85v6.412c0,1.57-1.28,2.851-2.851,2.851H28.382  c-1.57,0-2.851-1.28-2.851-2.851V47.474z"/>
</svg>